<mxfile host="app.diagrams.net" modified="2023-11-14T02:30:08.341Z" agent="Mozilla/5.0 (Windows NT 10.0; Win64; x64) AppleWebKit/537.36 (KHTML, like Gecko) Chrome/119.0.0.0 Safari/537.36" etag="ma6aX-DbCdfc8lUwzJos" version="22.1.0" type="github">
  <diagram name="Page-1" id="Oi2URwplTFKzTPAcGBmn">
    <mxGraphModel dx="2156" dy="884" grid="1" gridSize="10" guides="1" tooltips="1" connect="1" arrows="1" fold="1" page="1" pageScale="1" pageWidth="827" pageHeight="1169" math="0" shadow="0">
      <root>
        <mxCell id="0" />
        <mxCell id="1" parent="0" />
        <mxCell id="CoVtvvBq3vYbISneMbIC-51" value="&lt;blockquote style=&quot;margin: 0 0 0 40px; border: none; padding: 0px;&quot;&gt;&lt;div style=&quot;&quot;&gt;&lt;br&gt;&lt;/div&gt;&lt;/blockquote&gt;" style="rounded=0;whiteSpace=wrap;html=1;dashed=1;align=center;labelPosition=center;verticalLabelPosition=bottom;verticalAlign=top;" parent="1" vertex="1">
          <mxGeometry y="608" width="830" height="180" as="geometry" />
        </mxCell>
        <mxCell id="CoVtvvBq3vYbISneMbIC-37" value="" style="html=1;verticalLabelPosition=bottom;align=center;labelBackgroundColor=#ffffff;verticalAlign=top;strokeWidth=2;strokeColor=#0080F0;shadow=0;dashed=0;shape=mxgraph.ios7.icons.document;" parent="1" vertex="1">
          <mxGeometry x="754" y="636.5" width="56" height="32.5" as="geometry" />
        </mxCell>
        <mxCell id="CoVtvvBq3vYbISneMbIC-13" value="&lt;blockquote style=&quot;margin: 0 0 0 40px; border: none; padding: 0px;&quot;&gt;&lt;div style=&quot;&quot;&gt;&lt;br&gt;&lt;/div&gt;&lt;/blockquote&gt;" style="rounded=0;whiteSpace=wrap;html=1;dashed=1;align=center;labelPosition=center;verticalLabelPosition=bottom;verticalAlign=top;" parent="1" vertex="1">
          <mxGeometry y="211" width="830" height="299" as="geometry" />
        </mxCell>
        <mxCell id="CoVtvvBq3vYbISneMbIC-1" value="Original key file" style="html=1;verticalLabelPosition=bottom;align=center;labelBackgroundColor=#ffffff;verticalAlign=top;strokeWidth=2;strokeColor=#0080F0;shadow=0;dashed=0;shape=mxgraph.ios7.icons.document;" parent="1" vertex="1">
          <mxGeometry x="2" y="292.5" width="71" height="45" as="geometry" />
        </mxCell>
        <mxCell id="CoVtvvBq3vYbISneMbIC-2" value="Amlogic Key Division Tool&amp;nbsp;" style="rounded=0;whiteSpace=wrap;html=1;" parent="1" vertex="1">
          <mxGeometry x="151" y="285" width="120" height="60" as="geometry" />
        </mxCell>
        <mxCell id="CoVtvvBq3vYbISneMbIC-3" value="Amlogic Keywrapper Tool&amp;nbsp;" style="rounded=0;whiteSpace=wrap;html=1;" parent="1" vertex="1">
          <mxGeometry x="372" y="285" width="120" height="60" as="geometry" />
        </mxCell>
        <mxCell id="CoVtvvBq3vYbISneMbIC-4" value="" style="endArrow=classic;html=1;rounded=0;entryX=0;entryY=0.5;entryDx=0;entryDy=0;" parent="1" source="CoVtvvBq3vYbISneMbIC-1" target="CoVtvvBq3vYbISneMbIC-2" edge="1">
          <mxGeometry width="50" height="50" relative="1" as="geometry">
            <mxPoint x="110" y="320" as="sourcePoint" />
            <mxPoint x="160" y="270" as="targetPoint" />
          </mxGeometry>
        </mxCell>
        <mxCell id="CoVtvvBq3vYbISneMbIC-5" value="" style="endArrow=classic;html=1;rounded=0;exitX=1;exitY=0.5;exitDx=0;exitDy=0;entryX=0;entryY=0.5;entryDx=0;entryDy=0;" parent="1" source="CoVtvvBq3vYbISneMbIC-2" target="CoVtvvBq3vYbISneMbIC-3" edge="1">
          <mxGeometry width="50" height="50" relative="1" as="geometry">
            <mxPoint x="230" y="315" as="sourcePoint" />
            <mxPoint x="389" y="315" as="targetPoint" />
          </mxGeometry>
        </mxCell>
        <mxCell id="CoVtvvBq3vYbISneMbIC-6" value="" style="html=1;verticalLabelPosition=bottom;align=center;labelBackgroundColor=#ffffff;verticalAlign=top;strokeWidth=2;strokeColor=#0080F0;shadow=0;dashed=0;shape=mxgraph.ios7.icons.documents;" parent="1" vertex="1">
          <mxGeometry x="278" y="270" width="76" height="40" as="geometry" />
        </mxCell>
        <mxCell id="CoVtvvBq3vYbISneMbIC-9" value="" style="edgeStyle=orthogonalEdgeStyle;rounded=0;orthogonalLoop=1;jettySize=auto;html=1;exitX=1;exitY=0.5;exitDx=0;exitDy=0;" parent="1" source="CoVtvvBq3vYbISneMbIC-3" target="CoVtvvBq3vYbISneMbIC-7" edge="1">
          <mxGeometry relative="1" as="geometry">
            <mxPoint x="700" y="440" as="targetPoint" />
          </mxGeometry>
        </mxCell>
        <mxCell id="CoVtvvBq3vYbISneMbIC-7" value="" style="html=1;verticalLabelPosition=bottom;align=center;labelBackgroundColor=#ffffff;verticalAlign=top;strokeWidth=2;strokeColor=#0080F0;shadow=0;dashed=0;shape=mxgraph.ios7.icons.documents;" parent="1" vertex="1">
          <mxGeometry x="540" y="292.5" width="80" height="45" as="geometry" />
        </mxCell>
        <mxCell id="CoVtvvBq3vYbISneMbIC-10" value="Provision Service&amp;nbsp;" style="rounded=0;whiteSpace=wrap;html=1;" parent="1" vertex="1">
          <mxGeometry x="682" y="286" width="120" height="60" as="geometry" />
        </mxCell>
        <mxCell id="CoVtvvBq3vYbISneMbIC-11" value="" style="endArrow=classic;html=1;rounded=0;entryX=0;entryY=0.5;entryDx=0;entryDy=0;exitX=1.025;exitY=0.522;exitDx=0;exitDy=0;exitPerimeter=0;" parent="1" source="CoVtvvBq3vYbISneMbIC-7" target="CoVtvvBq3vYbISneMbIC-10" edge="1">
          <mxGeometry width="50" height="50" relative="1" as="geometry">
            <mxPoint x="650" y="320" as="sourcePoint" />
            <mxPoint x="700" y="270" as="targetPoint" />
          </mxGeometry>
        </mxCell>
        <mxCell id="CoVtvvBq3vYbISneMbIC-18" value="Splitted key file" style="text;html=1;strokeColor=none;fillColor=none;align=center;verticalAlign=middle;whiteSpace=wrap;rounded=0;" parent="1" vertex="1">
          <mxGeometry x="277" y="240" width="60" height="30" as="geometry" />
        </mxCell>
        <mxCell id="CoVtvvBq3vYbISneMbIC-19" value="Encrypted/signed key files&amp;nbsp;" style="text;html=1;strokeColor=none;fillColor=none;align=center;verticalAlign=middle;whiteSpace=wrap;rounded=0;" parent="1" vertex="1">
          <mxGeometry x="540" y="255" width="60" height="30" as="geometry" />
        </mxCell>
        <mxCell id="CoVtvvBq3vYbISneMbIC-20" value="Provision TA&amp;nbsp;" style="rounded=0;whiteSpace=wrap;html=1;" parent="1" vertex="1">
          <mxGeometry x="688" y="678" width="120" height="60" as="geometry" />
        </mxCell>
        <mxCell id="CoVtvvBq3vYbISneMbIC-21" value="HDCP TA" style="rounded=0;whiteSpace=wrap;html=1;" parent="1" vertex="1">
          <mxGeometry x="450" y="678" width="120" height="60" as="geometry" />
        </mxCell>
        <mxCell id="CoVtvvBq3vYbISneMbIC-22" value="" style="html=1;verticalLabelPosition=bottom;align=center;labelBackgroundColor=#ffffff;verticalAlign=top;strokeWidth=2;strokeColor=#0080F0;shadow=0;dashed=0;shape=mxgraph.ios7.icons.locked;" parent="1" vertex="1">
          <mxGeometry x="554" y="317.5" width="10" height="20" as="geometry" />
        </mxCell>
        <mxCell id="CoVtvvBq3vYbISneMbIC-23" value="" style="html=1;verticalLabelPosition=bottom;align=center;labelBackgroundColor=#ffffff;verticalAlign=top;strokeWidth=2;strokeColor=#0080F0;shadow=0;dashed=0;shape=mxgraph.ios7.icons.locked;" parent="1" vertex="1">
          <mxGeometry x="542" y="317.5" width="10" height="20" as="geometry" />
        </mxCell>
        <mxCell id="CoVtvvBq3vYbISneMbIC-24" value="" style="html=1;verticalLabelPosition=bottom;align=center;labelBackgroundColor=#ffffff;verticalAlign=top;strokeWidth=2;strokeColor=#0080F0;shadow=0;dashed=0;shape=mxgraph.ios7.icons.locked;" parent="1" vertex="1">
          <mxGeometry x="278" y="288" width="10" height="20" as="geometry" />
        </mxCell>
        <mxCell id="CoVtvvBq3vYbISneMbIC-25" value="Network" style="ellipse;shape=cloud;whiteSpace=wrap;html=1;" parent="1" vertex="1">
          <mxGeometry x="673" y="518" width="172" height="80" as="geometry" />
        </mxCell>
        <mxCell id="CoVtvvBq3vYbISneMbIC-26" value="TEE OS" style="rounded=0;whiteSpace=wrap;html=1;" parent="1" vertex="1">
          <mxGeometry x="226" y="678" width="120" height="60" as="geometry" />
        </mxCell>
        <mxCell id="CoVtvvBq3vYbISneMbIC-27" value="HDCP Hardware" style="rounded=0;whiteSpace=wrap;html=1;" parent="1" vertex="1">
          <mxGeometry x="1" y="678" width="120" height="60" as="geometry" />
        </mxCell>
        <mxCell id="CoVtvvBq3vYbISneMbIC-28" value="" style="endArrow=classic;html=1;rounded=0;exitX=0.5;exitY=1;exitDx=0;exitDy=0;entryX=0.4;entryY=0.1;entryDx=0;entryDy=0;entryPerimeter=0;" parent="1" source="CoVtvvBq3vYbISneMbIC-10" target="CoVtvvBq3vYbISneMbIC-25" edge="1">
          <mxGeometry width="50" height="50" relative="1" as="geometry">
            <mxPoint x="726" y="345" as="sourcePoint" />
            <mxPoint x="536" y="450" as="targetPoint" />
          </mxGeometry>
        </mxCell>
        <mxCell id="CoVtvvBq3vYbISneMbIC-30" value="" style="endArrow=classic;html=1;rounded=0;exitX=0.436;exitY=0.95;exitDx=0;exitDy=0;exitPerimeter=0;entryX=0.5;entryY=0;entryDx=0;entryDy=0;" parent="1" source="CoVtvvBq3vYbISneMbIC-25" target="CoVtvvBq3vYbISneMbIC-20" edge="1">
          <mxGeometry width="50" height="50" relative="1" as="geometry">
            <mxPoint x="820" y="580" as="sourcePoint" />
            <mxPoint x="870" y="530" as="targetPoint" />
          </mxGeometry>
        </mxCell>
        <mxCell id="CoVtvvBq3vYbISneMbIC-31" value="" style="endArrow=classic;html=1;rounded=0;exitX=0;exitY=0.5;exitDx=0;exitDy=0;entryX=1;entryY=0.5;entryDx=0;entryDy=0;" parent="1" source="CoVtvvBq3vYbISneMbIC-20" target="CoVtvvBq3vYbISneMbIC-21" edge="1">
          <mxGeometry width="50" height="50" relative="1" as="geometry">
            <mxPoint x="500" y="608" as="sourcePoint" />
            <mxPoint x="550" y="558" as="targetPoint" />
          </mxGeometry>
        </mxCell>
        <mxCell id="CoVtvvBq3vYbISneMbIC-32" value="" style="endArrow=classic;html=1;rounded=0;exitX=0;exitY=0.5;exitDx=0;exitDy=0;entryX=1;entryY=0.5;entryDx=0;entryDy=0;" parent="1" source="CoVtvvBq3vYbISneMbIC-21" target="CoVtvvBq3vYbISneMbIC-26" edge="1">
          <mxGeometry width="50" height="50" relative="1" as="geometry">
            <mxPoint x="310" y="608" as="sourcePoint" />
            <mxPoint x="360" y="558" as="targetPoint" />
          </mxGeometry>
        </mxCell>
        <mxCell id="CoVtvvBq3vYbISneMbIC-36" value="" style="html=1;verticalLabelPosition=bottom;align=center;labelBackgroundColor=#ffffff;verticalAlign=top;strokeWidth=2;strokeColor=#0080F0;shadow=0;dashed=0;shape=mxgraph.ios7.icons.locked;" parent="1" vertex="1">
          <mxGeometry x="754" y="648" width="10" height="20" as="geometry" />
        </mxCell>
        <mxCell id="CoVtvvBq3vYbISneMbIC-38" value="" style="html=1;verticalLabelPosition=bottom;align=center;labelBackgroundColor=#ffffff;verticalAlign=top;strokeWidth=2;strokeColor=#0080F0;shadow=0;dashed=0;shape=mxgraph.ios7.icons.locked;" parent="1" vertex="1">
          <mxGeometry x="766.5" y="647.5" width="10" height="20" as="geometry" />
        </mxCell>
        <mxCell id="CoVtvvBq3vYbISneMbIC-42" value="" style="html=1;verticalLabelPosition=bottom;align=center;labelBackgroundColor=#ffffff;verticalAlign=top;strokeWidth=2;strokeColor=#0080F0;shadow=0;dashed=0;shape=mxgraph.ios7.icons.document;" parent="1" vertex="1">
          <mxGeometry x="599" y="668" width="53.5" height="32.5" as="geometry" />
        </mxCell>
        <mxCell id="CoVtvvBq3vYbISneMbIC-43" value="" style="html=1;verticalLabelPosition=bottom;align=center;labelBackgroundColor=#ffffff;verticalAlign=top;strokeWidth=2;strokeColor=#0080F0;shadow=0;dashed=0;shape=mxgraph.ios7.icons.locked;" parent="1" vertex="1">
          <mxGeometry x="600" y="678" width="10" height="20" as="geometry" />
        </mxCell>
        <mxCell id="CoVtvvBq3vYbISneMbIC-44" value="" style="html=1;verticalLabelPosition=bottom;align=center;labelBackgroundColor=#ffffff;verticalAlign=top;strokeWidth=2;strokeColor=#0080F0;shadow=0;dashed=0;shape=mxgraph.ios7.icons.document;" parent="1" vertex="1">
          <mxGeometry x="372" y="668" width="53.5" height="32.5" as="geometry" />
        </mxCell>
        <mxCell id="CoVtvvBq3vYbISneMbIC-45" value="" style="html=1;verticalLabelPosition=bottom;align=center;labelBackgroundColor=#ffffff;verticalAlign=top;strokeWidth=2;strokeColor=#0080F0;shadow=0;dashed=0;shape=mxgraph.ios7.icons.locked;" parent="1" vertex="1">
          <mxGeometry x="372" y="680.5" width="10" height="20" as="geometry" />
        </mxCell>
        <mxCell id="CoVtvvBq3vYbISneMbIC-46" value="" style="html=1;verticalLabelPosition=bottom;align=center;labelBackgroundColor=#ffffff;verticalAlign=top;strokeWidth=2;strokeColor=#0080F0;shadow=0;dashed=0;shape=mxgraph.ios7.icons.document;" parent="1" vertex="1">
          <mxGeometry x="151" y="669.75" width="53.5" height="32.5" as="geometry" />
        </mxCell>
        <mxCell id="CoVtvvBq3vYbISneMbIC-47" value="" style="html=1;verticalLabelPosition=bottom;align=center;labelBackgroundColor=#ffffff;verticalAlign=top;strokeWidth=2;strokeColor=#0080F0;shadow=0;dashed=0;shape=mxgraph.ios7.icons.locked;" parent="1" vertex="1">
          <mxGeometry x="151" y="680.5" width="10" height="20" as="geometry" />
        </mxCell>
        <mxCell id="CoVtvvBq3vYbISneMbIC-48" value="" style="endArrow=classic;html=1;rounded=0;entryX=1;entryY=0.5;entryDx=0;entryDy=0;exitX=0;exitY=0.5;exitDx=0;exitDy=0;" parent="1" source="CoVtvvBq3vYbISneMbIC-26" target="CoVtvvBq3vYbISneMbIC-27" edge="1">
          <mxGeometry width="50" height="50" relative="1" as="geometry">
            <mxPoint x="220" y="618" as="sourcePoint" />
            <mxPoint x="270" y="568" as="targetPoint" />
          </mxGeometry>
        </mxCell>
        <mxCell id="CoVtvvBq3vYbISneMbIC-50" value="Server" style="text;html=1;strokeColor=none;fillColor=none;align=center;verticalAlign=middle;whiteSpace=wrap;rounded=0;" parent="1" vertex="1">
          <mxGeometry y="220" width="60" height="30" as="geometry" />
        </mxCell>
        <mxCell id="CoVtvvBq3vYbISneMbIC-52" value="Device" style="text;html=1;strokeColor=none;fillColor=none;align=center;verticalAlign=middle;whiteSpace=wrap;rounded=0;" parent="1" vertex="1">
          <mxGeometry y="608" width="60" height="30" as="geometry" />
        </mxCell>
        <mxCell id="oTAOd8NIU_a4ycHPTWen-1" value="HDCPTool" style="rounded=0;whiteSpace=wrap;html=1;" vertex="1" parent="1">
          <mxGeometry x="372" y="433" width="120" height="60" as="geometry" />
        </mxCell>
        <mxCell id="oTAOd8NIU_a4ycHPTWen-3" value="" style="endArrow=classic;html=1;rounded=0;entryX=0;entryY=0.5;entryDx=0;entryDy=0;edgeStyle=orthogonalEdgeStyle;" edge="1" parent="1" source="CoVtvvBq3vYbISneMbIC-1" target="oTAOd8NIU_a4ycHPTWen-1">
          <mxGeometry width="50" height="50" relative="1" as="geometry">
            <mxPoint x="50" y="430" as="sourcePoint" />
            <mxPoint x="100" y="380" as="targetPoint" />
            <Array as="points">
              <mxPoint x="50" y="463" />
            </Array>
          </mxGeometry>
        </mxCell>
        <mxCell id="oTAOd8NIU_a4ycHPTWen-5" value="HDCP TX 22 Key&amp;nbsp;" style="text;html=1;strokeColor=none;fillColor=none;align=center;verticalAlign=middle;whiteSpace=wrap;rounded=0;" vertex="1" parent="1">
          <mxGeometry x="167" y="407" width="110" height="75" as="geometry" />
        </mxCell>
        <mxCell id="oTAOd8NIU_a4ycHPTWen-6" value="Other key file" style="text;html=1;strokeColor=none;fillColor=none;align=center;verticalAlign=middle;whiteSpace=wrap;rounded=0;" vertex="1" parent="1">
          <mxGeometry x="70" y="282" width="80" height="30" as="geometry" />
        </mxCell>
        <mxCell id="oTAOd8NIU_a4ycHPTWen-7" value="" style="endArrow=classic;html=1;rounded=0;entryX=0.5;entryY=1;entryDx=0;entryDy=0;exitX=0.5;exitY=0;exitDx=0;exitDy=0;" edge="1" parent="1" source="oTAOd8NIU_a4ycHPTWen-1" target="CoVtvvBq3vYbISneMbIC-3">
          <mxGeometry width="50" height="50" relative="1" as="geometry">
            <mxPoint x="360" y="380" as="sourcePoint" />
            <mxPoint x="410" y="330" as="targetPoint" />
          </mxGeometry>
        </mxCell>
        <mxCell id="oTAOd8NIU_a4ycHPTWen-8" value="hdcp_fw_private.bin" style="text;html=1;strokeColor=none;fillColor=none;align=center;verticalAlign=middle;whiteSpace=wrap;rounded=0;" vertex="1" parent="1">
          <mxGeometry x="460" y="376" width="60" height="30" as="geometry" />
        </mxCell>
        <mxCell id="oTAOd8NIU_a4ycHPTWen-10" value="firmware.le" style="text;html=1;strokeColor=none;fillColor=none;align=center;verticalAlign=middle;whiteSpace=wrap;rounded=0;" vertex="1" parent="1">
          <mxGeometry x="505" y="429.5" width="60" height="30" as="geometry" />
        </mxCell>
        <mxCell id="oTAOd8NIU_a4ycHPTWen-11" value="System Image" style="rounded=0;whiteSpace=wrap;html=1;" vertex="1" parent="1">
          <mxGeometry x="586" y="433" width="120" height="60" as="geometry" />
        </mxCell>
        <mxCell id="oTAOd8NIU_a4ycHPTWen-12" value="" style="endArrow=classic;html=1;rounded=0;entryX=0;entryY=0.5;entryDx=0;entryDy=0;exitX=1;exitY=0.5;exitDx=0;exitDy=0;" edge="1" parent="1" source="oTAOd8NIU_a4ycHPTWen-1" target="oTAOd8NIU_a4ycHPTWen-11">
          <mxGeometry width="50" height="50" relative="1" as="geometry">
            <mxPoint x="500" y="470" as="sourcePoint" />
            <mxPoint x="550" y="420" as="targetPoint" />
          </mxGeometry>
        </mxCell>
      </root>
    </mxGraphModel>
  </diagram>
</mxfile>
